<svg xmlns="http://www.w3.org/2000/svg" viewBox="0 0 138.6 32" role="img" aria-label="Aston Martin logo">
  <g fill="#0f172a">
    <path d="M41.9939 11.3608H43.6218L42.7753 9.19376L41.9939 11.3608ZM40.3008 13.4621L42.7102 7.74908H43.3613L45.7706 13.4621H44.5334L44.0125 12.0174H41.8636L41.2776 13.4621H40.3008ZM45.966 13.1995L45.9009 12.1488C46.4218 12.6085 47.0078 12.8711 47.5939 12.8711C47.9195 12.8711 48.1799 12.8055 48.3753 12.6741C48.7009 12.4115 48.7009 11.9518 48.4404 11.6891C48.245 11.4264 47.8544 11.2951 47.0078 10.9011C46.2264 10.5071 45.8357 9.98177 45.8357 9.25943C45.8357 8.79976 46.0311 8.40575 46.3567 8.07742C47.073 7.42075 48.3102 7.68342 48.4404 7.68342C48.7009 7.74908 48.8962 7.81475 49.0916 7.88042L49.1567 8.86543C48.8962 8.66842 48.6357 8.53709 48.4404 8.47142C47.659 8.20875 46.8125 8.40575 46.8125 9.06243C46.8125 9.39076 47.0078 9.58776 47.4637 9.85043C48.4404 10.3758 48.9613 10.5728 49.2869 11.0324C49.7427 11.5578 49.7427 12.6741 49.0264 13.1995C48.6357 13.4621 48.1799 13.6591 47.5288 13.6591C46.8125 13.5935 46.2264 13.3308 45.966 13.1995ZM51.3706 13.4621V8.40575C50.9148 8.40575 50.3939 8.47142 49.6776 8.53709L49.7427 7.68342H54.1055L54.1706 8.53709C53.259 8.40575 52.7381 8.40575 52.4776 8.40575V13.3965H51.3706V13.4621ZM57.0358 12.8711C57.9474 12.8711 58.7288 12.1488 58.7288 10.5728C58.7288 10.4414 58.7288 9.19376 57.9474 8.53709C57.6869 8.34009 57.4265 8.27442 57.0358 8.27442C55.8637 8.27442 55.3427 9.39076 55.3427 10.5728C55.4079 12.1488 56.1893 12.8711 57.0358 12.8711ZM57.0358 13.5935C55.3427 13.5935 54.1706 12.3458 54.1706 10.6384C54.1706 8.86543 55.3427 7.68342 57.0358 7.68342C58.7288 7.68342 59.9009 8.86543 59.9009 10.6384C59.9009 12.3458 58.7288 13.5935 57.0358 13.5935ZM60.8125 13.4621V7.74908H61.3986L64.7846 11.6234V7.74908H65.566V13.4621H64.98L61.5939 9.58776V13.4621H60.8125ZM68.6265 13.4621L69.2777 7.74908H69.8637L71.8823 11.7548L73.8358 7.74908H74.4219L75.073 13.4621H73.9009L73.5753 9.9161L72.0126 13.1995H71.4916L69.8637 9.9161L69.5381 13.3965H68.6265V13.4621ZM77.1567 11.3608H78.7847L77.9381 9.19376L77.1567 11.3608ZM75.4637 13.4621L77.873 7.74908H78.5242L80.9335 13.4621H79.6963L79.1754 12.0174H77.0265L76.4405 13.4621H75.4637ZM82.4312 10.3101C82.5614 10.3101 82.7568 10.3758 82.887 10.3758C83.7986 10.3758 84.0591 9.85043 84.0591 9.39076C84.0591 8.66842 83.5382 8.40575 82.887 8.40575C82.7568 8.40575 82.6265 8.40575 82.4963 8.40575V10.3101H82.4312ZM81.3893 13.4621V7.81475C81.7149 7.74908 82.1056 7.74908 82.6916 7.74908C83.2126 7.74908 83.6684 7.81475 83.994 7.94608C84.5149 8.14309 85.1661 8.53709 85.1661 9.39076C85.1661 9.7191 85.0358 10.0474 84.8405 10.3758C84.6451 10.6384 84.3196 10.8354 83.9289 10.9668L85.9475 13.5278H84.6451L82.887 11.0981H82.4963V13.5278H81.3893V13.4621ZM87.2498 13.4621V8.40575C86.794 8.40575 86.2731 8.47142 85.5568 8.53709L85.6219 7.68342H89.9847L90.0498 8.53709C89.1382 8.40575 88.6172 8.40575 88.3568 8.40575V13.3965H87.2498V13.4621ZM90.7661 7.74908H91.8731V13.4621H90.7661V7.74908ZM92.98 13.4621V7.74908H93.5661L96.9522 11.6234V7.74908H97.7336V13.4621H97.1475L93.7614 9.58776V13.4621H92.98Z"/>
    <path d="M138.173 1.05067C137.783 0.394002 137.066 0 136.22 0H80.4149C79.5033 0 78.0708 -4.69688e-07 76.5731 1.51034C76.1173 1.97002 75.7917 2.49535 75.5963 2.88935C75.1405 3.74303 74.8149 4.33403 73.2521 4.33403H65.1126C63.6149 4.33403 63.2242 3.74303 62.7684 2.88935C62.5079 2.42968 62.2475 1.97002 61.7916 1.51034C60.294 -4.69688e-07 58.8614 0 57.9498 0H2.21009C1.29846 0 0.582183 0.394002 0.256601 1.05067C-0.134098 1.70735 -0.0689808 2.56102 0.386834 3.28336L1.36358 4.99071C1.88451 5.91005 2.60079 6.04138 3.12173 6.17271C3.57754 6.23838 3.90312 6.30405 4.22871 6.96072L5.14033 8.53673C5.85662 9.85008 6.63801 9.98141 7.22406 10.1127C7.67988 10.1784 8.13569 10.2441 8.72174 11.2948C9.30779 12.3454 10.1543 13.9214 12.3031 14.5781C12.4985 14.6438 33.0753 20.6852 33.1404 20.6852C35.2892 21.4075 35.8753 22.1955 36.5265 23.1805C36.9172 23.7715 38.0241 25.3475 40.6288 26.0699L60.4242 31.4546C62.573 32.0456 63.8754 30.9949 64.5265 30.4039L68.1079 26.9892C68.6289 26.5295 68.8893 26.3325 69.2149 26.3325C69.5405 26.3325 69.801 26.5295 70.3219 26.9892L73.9033 30.4039C74.5545 30.9292 75.8568 31.9799 78.0056 31.4546L97.801 26.0699C100.471 25.3475 101.513 23.7715 101.903 23.1805C102.555 22.1955 103.141 21.3418 105.289 20.6852C105.289 20.6852 125.866 14.6438 126.127 14.5781C128.21 13.9214 129.122 12.3454 129.708 11.2948C130.294 10.2441 130.685 10.1784 131.141 10.1127C131.727 9.98141 132.573 9.85008 133.289 8.53673L134.201 6.96072C134.592 6.30405 134.852 6.23838 135.308 6.17271C135.829 6.04138 136.545 5.91005 137.066 4.99071L138.043 3.28336C138.499 2.49535 138.564 1.70735 138.173 1.05067ZM100.08 5.64738V15.4975H38.3497V5.64738H100.08ZM77.9405 30.0099C76.4428 30.0099 75.9219 28.6966 75.5312 27.6459C75.0754 26.4639 72.6661 18.7151 71.9498 16.6138H75.0103C76.6382 19.4375 79.6335 24.4282 80.9359 26.5295C81.1963 26.9235 81.8475 28.0399 83.0196 28.7622C78.3312 30.0099 78.4614 30.0099 77.9405 30.0099ZM85.1684 28.0399C83.4754 28.0399 82.5638 26.7265 82.0429 25.8729C80.9359 24.0999 78.3963 19.8315 76.508 16.6138H79.894C82.0428 18.9121 86.5359 23.7059 88.294 25.5445C88.5545 25.8072 89.1405 26.3982 89.9871 26.9235C85.8196 27.9742 85.8196 28.0399 85.1684 28.0399ZM92.0708 26.1355C90.7685 26.1355 89.7917 25.2162 89.1405 24.5595C87.5778 22.9835 83.8661 19.0435 81.587 16.5481H85.2987C87.6429 18.3211 93.0475 22.3268 95.1964 23.7715C95.5871 24.0342 96.3685 24.4939 97.2801 24.8222C92.4615 26.1355 92.5917 26.1355 92.0708 26.1355ZM100.796 22.4582C100.21 23.3775 99.7545 23.8372 98.7127 23.8372C97.7359 23.8372 96.7592 23.3775 95.9127 22.7865C94.1545 21.5388 90.0522 18.5838 87.4475 16.6138H91.8754C97.2801 19.3062 99.5592 20.5538 101.057 21.0135C101.317 21.0792 101.578 21.1448 101.838 21.2105C101.382 21.5388 101.122 21.9985 100.796 22.4582ZM102.424 19.8972C101.187 19.8972 99.5592 19.0435 94.6103 16.5481H99.4289L106.201 18.2555C106.657 18.3868 107.113 18.4525 107.503 18.5838C103.662 19.7658 103.075 19.8972 102.424 19.8972ZM115.578 16.2198C111.606 17.4018 110.955 17.6645 109.848 17.6645C109.066 17.6645 108.089 17.5331 106.462 17.0735L101.122 15.6945V13.7901L115.578 16.2198ZM119.745 15.0378C118.443 15.3661 117.271 15.2348 115.448 14.9065L101.252 12.5424V11.0321L124.499 13.6588L119.745 15.0378ZM128.471 10.6381C128.276 10.9664 128.08 11.2948 127.885 11.5574C127.103 12.6738 126.583 12.6081 124.108 12.3454L101.122 9.71874V8.27407L127.624 9.85008C127.82 9.85008 128.341 9.91574 128.927 9.91574C128.796 10.1127 128.601 10.3754 128.471 10.6381ZM132.964 6.23838C132.964 6.23838 132.443 7.09206 132.248 7.55173C131.466 8.7994 131.076 8.7994 128.862 8.6024L101.187 6.96072V5.77871H133.289C133.159 5.97571 133.094 6.10705 132.964 6.23838ZM136.936 2.56102L136.22 3.8087C135.699 4.5967 135.503 4.5967 133.81 4.5967H76.1824C76.7684 3.87436 76.9638 3.15202 77.6149 2.49535C78.7219 1.37901 79.6335 1.37901 80.4801 1.37901H136.285C136.676 1.37901 136.936 1.51034 137.066 1.70735C137.131 1.90435 137.131 2.23268 136.936 2.56102ZM63.3544 29.6816C63.6149 29.3532 63.8102 28.8936 64.1358 28.1056C64.5916 26.9235 67.1312 18.8465 67.8475 16.6138H70.6475C71.3638 18.9121 73.9033 26.9235 74.3591 28.1056C74.6196 28.8936 74.8801 29.3532 75.1405 29.6816C75.0754 29.6159 74.9452 29.5502 74.88 29.4846L71.2986 26.0699C70.7126 25.5445 70.1265 25.0192 69.28 25.0192C68.4335 25.0192 67.7824 25.5445 67.2614 26.0699L63.68 29.4846C63.5498 29.5502 63.4196 29.6159 63.3544 29.6816ZM55.4102 28.6966C56.5823 27.9742 57.2986 26.8579 57.494 26.4639C58.7963 24.4282 61.7916 19.3718 63.4196 16.5481H66.48C65.8289 18.6495 63.3544 26.3982 62.8986 27.5802C62.5079 28.6309 61.987 29.9442 60.4893 29.9442C59.9684 30.0099 60.0986 30.0099 55.4102 28.6966ZM48.5079 26.8579C49.3544 26.3982 49.9405 25.8072 50.2009 25.4789C51.9591 23.7059 56.5172 18.8465 58.6009 16.5481H61.987C60.0986 19.7658 57.5591 24.0342 56.4521 25.8072C55.9312 26.6609 55.0195 27.9742 53.3265 27.9742C52.6753 28.0399 52.6102 27.9742 48.5079 26.8579ZM41.2148 24.8222C42.1265 24.5595 42.9079 24.0342 43.2986 23.7715C45.4474 22.3268 50.8521 18.3211 53.1963 16.5481H56.9079C54.6288 19.0435 50.9172 22.9835 49.3544 24.5595C48.7032 25.2162 47.7916 26.1355 46.4242 26.1355C45.9032 26.1355 45.9683 26.1355 41.2148 24.8222ZM36.6567 21.1448C36.9172 21.0792 37.1776 21.0792 37.4381 20.9478C39.0009 20.4882 41.28 19.3062 46.6195 16.5481H51.0474C48.3777 18.5181 44.3404 21.4732 42.5823 22.7208C41.8009 23.3119 40.759 23.7715 39.7823 23.7715C38.7404 23.7715 38.2846 23.3119 37.6986 22.3925C37.373 21.9985 37.0474 21.5388 36.6567 21.1448ZM30.9916 18.6495C31.3823 18.5838 31.8381 18.4525 32.2939 18.3211L39.066 16.6138H43.8846C38.9358 19.1092 37.3079 19.9628 36.0706 19.9628C35.3544 19.8972 34.7683 19.7658 30.9916 18.6495ZM37.3079 13.7901V15.6945L31.9683 17.0735C30.3404 17.4675 29.3636 17.6645 28.5823 17.6645C27.4753 17.6645 26.8241 17.4018 22.852 16.2198L37.3079 13.7901ZM14.0613 13.6588L37.3079 11.0321V12.5424L23.1125 14.9065C21.2241 15.2348 20.052 15.3661 18.8148 15.0378L14.0613 13.6588ZM9.50314 9.91574C10.0241 9.85008 10.6101 9.85008 10.8055 9.85008L37.3079 8.27407V9.71874L14.3218 12.3454C11.8473 12.6081 11.3264 12.6738 10.545 11.5574C10.3497 11.2948 10.1543 10.9664 9.95895 10.6381C9.82872 10.3754 9.69849 10.1127 9.50314 9.91574ZM5.20545 5.84438H37.3079V7.02639L9.63337 8.66807C7.41941 8.7994 7.02871 8.86507 6.24731 7.61739C5.98685 7.15772 5.53103 6.30405 5.53103 6.30405C5.4008 6.10705 5.27057 5.97571 5.20545 5.84438ZM1.4287 1.70735C1.55893 1.51034 1.8194 1.37901 2.21009 1.37901H58.0149C58.8614 1.37901 59.8381 1.37901 60.88 2.49535C61.5312 3.15202 61.7265 3.87436 62.3126 4.5967H4.68452C2.99149 4.5967 2.79614 4.5967 2.27521 3.8087L1.55893 2.56102C1.36358 2.23268 1.29847 1.90435 1.4287 1.70735Z"/>
  </g>
</svg>
