<svg xmlns="http://www.w3.org/2000/svg" height="800" width="1200" viewBox="-71.23275 -45.675 617.3505 274.05"><path d="M0 182.652h73.1L0 109.552zM474.885.008h-73.1l73.1 73.1zm-372.61 138.834l43.8 43.8h73l-43.8-43.8zM0 .008v36.5l43.8 43.8v-36.5h36.5L36.5.008zm474.885 146.135l-43.8-43.8v36.5h-36.5l43.8 43.8h36.5zM372.61 43.819l-43.8-43.8h-73.1l43.8 43.8zm-146.165 0l-43.8-43.8h-73.1l43.8 43.8zm21.895 95.023l43.8 43.8h73.1l-43.8-43.8z" fill="#d9003d"/><path d="M177.765 76.54c-1.5-1.3-3.6-2-6.2-2h-7.7v15.9h7.7c2.7 0 4.7-.7 6.2-2.1 1.5-1.4 2.2-3.3 2.2-5.8v-.2c.1-2.6-.6-4.5-2.2-5.8m117.967 21.742h11.3l-5.7-17.8z" fill="#fff"/><path d="M380.362 120.5c-4.2-1.4-8.1-3.7-11.7-6.8l8.3-11.4c2.5 2 5.1 3.7 7.9 5 2.8 1.3 5.7 1.9 8.6 1.9 2.1 0 3.7-.4 4.7-1.2 1.1-.8 1.6-1.9 1.6-3.2v-.1c0-.6-.1-1.1-.4-1.7-.3-.5-.7-1-1.4-1.5s-1.6-1-2.7-1.5c-1.2-.5-2.6-1.1-4.4-1.7-2.9-1-5.5-2-7.9-3.1-2.4-1.1-4.4-2.3-6.2-3.8-1.7-1.5-3.1-3.2-4-5.1-1-2-1.4-4.3-1.4-7.1v-.3c0-2.8.5-5.3 1.5-7.6s2.5-4.3 4.3-5.9c1.9-1.7 4.2-2.9 6.9-3.9 2.7-.9 5.7-1.4 9-1.4 4.1 0 8 .6 11.6 1.7 3.6 1.2 7 3 10.2 5.7l-7.9 11.7c-2.1-1.6-4.3-3-6.8-4-2.4-1-4.9-1.6-7.4-1.6-1.8 0-3.2.4-4.1 1.1-1 .8-1.4 1.7-1.4 2.9v.1c0 .7.1 1.3.4 1.8.3.5.8 1 1.5 1.6.7.5 1.7 1.1 3 1.7 1.2.6 2.8 1.2 4.7 1.9 2.9.9 5.5 1.9 7.8 3s4.3 2.4 5.9 3.9c1.6 1.5 2.9 3.2 3.7 5.1.9 1.9 1.3 4.2 1.3 6.8v.2c0 3-.6 5.6-1.7 8-1.1 2.4-2.6 4.4-4.6 6-1.9 1.7-4.3 2.9-7 3.8-2.7.9-5.7 1.3-9 1.3-4.3-.1-8.7-.9-12.9-2.3m-26.4-21.7v23h-15.7V99l-19.6-38.1h17.3l10.2 22 10.3-22h17l-19.5 37.9zm-39.5 23l-3.6-11h-19.1l-3.5 11h-16.1l21.4-61.2h15.8l21.5 61.2h-16.4zm-57-2.2c-3.9 1.4-8.2 2.2-13.2 2.2h-19.7V60.9h20c4.9 0 9.2.7 13 2.1 3.8 1.4 7 3.4 9.7 6 2.6 2.6 4.6 5.7 6 9.4 1.4 3.7 2 7.7 2 12.2v1c0 4.5-.7 8.6-2 12.3-1.4 3.7-3.4 6.9-6 9.5-2.7 2.7-5.9 4.8-9.8 6.2m-40.5 2.2h-15.7V60.9h15.7v60.9zm-37.1 0l-10.3-18.9h-5.6v18.9h-15.6V60.9h23.9c8.2 0 14.3 2.1 18.3 6.2 1.7 1.7 3 3.7 3.9 6 .9 2.4 1.4 5.1 1.4 8.2v.4c0 4.5-1 8.2-3 11.1-2 2.9-4.6 5.2-7.9 6.8l12.5 22.1h-17.6zm-36.2-46.8h-25.7v10.8h23.1v13.5h-23.1v22.5h-15.7V60.9h41.4V75zm-67.2 24.5h-.6c-9.1 0-15.5-6.3-15.5-14.7 0-4.4 1.3-7.5 3.7-10.5l6 4.4c-1.4 1.6-2.5 3.4-2.5 6 0 3.9 3.4 6.8 8.4 6.8h.4c5.6 0 8.7-3 8.7-6.9 0-1.5-.3-2.7-.9-3.5h-4.5v4.8h-6.1V73.7h14.5c2.1 2.9 3.8 6.6 3.8 11.2 0 8.3-5.9 14.6-15.4 14.6m14.9 15.6h-23.4v7.5h-7.1V99.7h7.1v7.5h23.4zm-30.5-54.2h30.5v7.8h-30.5zm370.1 77.9v-36.5l43.8 43.8V73l-73-73h-73.1l43.8 43.8h-72.9L255.762 0h-73l43.8 43.8h-73.1L109.662 0h-73.1l43.8 43.8h-36.5v36.5L.062 36.5v73.1l73.1 73.1h73.1l-43.8-43.8h73.1l43.8 43.8h73.1l-43.8-43.8h73.1l43.8 43.8h73.1l-44.2-43.9z" fill="#fff"/><path d="M244.692 74.901h-4.5v32.9h4.5c4.3 0 7.9-1.3 10.5-3.9 2.7-2.6 4-6.6 4-12.1v-.8c0-5.5-1.3-9.6-4-12.2-2.6-2.6-6.1-3.9-10.5-3.9" fill="#fff"/><path d="M102.267 121.738h15.7v-22.5h23.1v-13.5h-23.1v-10.8h25.7v-14.1h-41.4zm77.859-39.134c0 2.4-.7 4.4-2.2 5.8-1.5 1.4-3.6 2.1-6.2 2.1h-7.7v-15.9h7.7c2.6 0 4.7.7 6.2 2s2.3 3.3 2.3 5.9v.1zm12.7 10.3c2-2.9 3-6.6 3-11.1v-.4c0-3.1-.5-5.9-1.4-8.2-.9-2.4-2.2-4.4-3.9-6-4-4.1-10.1-6.2-18.3-6.2h-23.9v60.9h15.6v-18.9h5.6l10.3 18.9h17.7l-12.5-22.1c3.2-1.7 5.8-4 7.8-6.9m8.474 28.85H217v-60.9h-15.7zm57.963-29.998c0 5.5-1.3 9.5-4 12.1-2.7 2.6-6.2 3.9-10.5 3.9h-4.5v-32.9h4.5c4.3 0 7.9 1.3 10.5 3.9 2.7 2.6 4 6.7 4 12.2zm16-.1v-1c0-4.5-.7-8.5-2-12.2-1.4-3.7-3.3-6.8-6-9.4-2.6-2.6-5.8-4.6-9.7-6-3.8-1.4-8.2-2.1-13-2.1h-20v60.9h19.7c4.9 0 9.3-.7 13.2-2.2 3.9-1.4 7.1-3.5 9.7-6.1 2.6-2.6 4.6-5.8 6-9.5 1.4-3.8 2.1-7.9 2.1-12.4m20.469 6.626l5.7-17.8 5.7 17.8zm-2.1-37.7l-21.4 61.2h16.1l3.5-11h19.1l3.6 11h16.4l-21.5-61.2h-15.8zm62.848.341l-10.3 22-10.2-22h-17.3l19.6 38.1v22.8h15.7v-23l19.6-37.9zm52.925 56.627c1.9-1.7 3.5-3.7 4.6-6 1.1-2.3 1.7-5 1.7-8v-.2c0-2.6-.4-4.9-1.3-6.8-.9-1.9-2.1-3.6-3.7-5.1-1.6-1.5-3.6-2.8-5.9-3.9-2.3-1.1-4.9-2.1-7.8-3-1.9-.7-3.5-1.3-4.7-1.9-1.2-.6-2.2-1.1-3-1.7-.7-.5-1.2-1-1.5-1.6-.3-.5-.4-1.1-.4-1.8v-.1c0-1.2.5-2.1 1.4-2.9 1-.8 2.3-1.1 4.1-1.1 2.5 0 5 .5 7.4 1.6 2.4 1 4.7 2.4 6.8 4l7.8-11.6c-3.2-2.6-6.6-4.5-10.2-5.7-3.6-1.2-7.4-1.7-11.6-1.7-3.3 0-6.3.5-9 1.4-2.7.9-5 2.2-6.9 3.9-1.9 1.7-3.3 3.6-4.3 5.9-1 2.3-1.5 4.8-1.5 7.6v.3c0 2.8.5 5.2 1.4 7.1 1 2 2.3 3.7 4 5.1 1.7 1.4 3.8 2.7 6.2 3.8 2.4 1.1 5 2.1 7.9 3.1 1.8.6 3.3 1.2 4.4 1.7 1.2.5 2.1 1 2.7 1.5.7.5 1.1 1 1.4 1.5.3.5.4 1.1.4 1.7v.1c0 1.3-.5 2.4-1.6 3.2-1.1.8-2.7 1.2-4.7 1.2-3 0-5.8-.6-8.6-1.9-2.8-1.3-5.4-2.9-7.9-5l-8.3 11.4c3.6 3.1 7.5 5.4 11.7 6.8 4.2 1.4 8.6 2.1 13.1 2.1 3.2 0 6.2-.4 9-1.3 2.7-.8 5-2 6.9-3.7M67.911 99.767h-7.1v22.9h7.1v-7.5h23.4v-7.8h-23.4zm5.614-26.111v12.2h6.1v-4.8h4.5c.6.9.9 2 .9 3.5 0 3.9-3.1 6.9-8.7 6.9h-.4c-5.1 0-8.4-3-8.4-6.8 0-2.6 1.1-4.4 2.5-6l-6-4.4c-2.4 3-3.7 6.1-3.7 10.5 0 8.4 6.4 14.7 15.5 14.7h.6c9.5 0 15.4-6.3 15.4-14.6 0-4.6-1.7-8.3-3.8-11.2zM91.4 60.954H60.9v7.8h30.5z"/></svg>