<svg xmlns="http://www.w3.org/2000/svg" version="1.0" width="1200" height="800" viewBox="-45.44646 -20.354925 393.86932 122.12955"><path d="M178.337 14.625h-9.6045l-2.8377 9.1679-3.056-9.168h-9.6044l7.8582-5.6753L158.0366 0l7.8582 5.6754L173.5348 0l-2.8378 8.9496 7.64 5.6754" fill="#d10a0a"/><path d="M24.4477 31.8694h-7.2034L13.7518 54.789c-.4365 2.6194-.6548 5.2388-.8731 7.8582 0-1.528-.6549-6.985-.8731-8.2947l-3.056-22.4832H0l7.6399 37.1081h9.6044l2.6194-15.498c.4366-3.056.6549-5.8937.8732-8.9497h.2183c.2183 3.2743.4365 6.3302 1.0914 9.3862l2.8377 15.0615h9.3861l7.4216-37.1081h-8.513l-2.8377 22.4832c-.2183 1.0914-.8731 6.5485-.8731 8.2947-.2183-2.8377-.4366-5.457-.8731-8.0765l-4.1474-22.7014"/><path d="M62.4288 53.4794c-.2183 3.4926.6549 9.8228-4.3656 9.8228-3.056 0-3.929-1.9646-3.929-4.8023 0-1.528.2182-3.2742 1.3096-4.3656 2.4011-1.7463 4.8022-3.2743 6.985-4.8023zm9.168 15.4981c-.4366-1.7462-.655-3.4925-.655-5.2388V41.9104C71.1603 36.89 70.287 30.778 58.718 30.778c-10.6958 0-13.097 5.0205-12.8786 12.0055h8.0764c0-3.2742.6549-5.457 4.584-5.457 2.1828 0 3.4925.4365 3.929 1.9645.6549 3.056-.6548 4.8022-4.1473 6.3302-6.7668 2.6194-12.6604 4.8023-12.6604 13.097 0 7.64 2.8377 11.1325 9.8227 11.1325 2.8377 0 5.457-1.7463 7.4216-4.8023h.2183c-.2183 1.3097 0 2.6194.4366 3.9291h8.0765m7.4215 4.1475c.4366 6.1119 5.2388 8.2947 10.9142 8.2947 11.569 0 13.7518-6.112 13.7518-13.5336V31.8694h-8.513v3.7108h-.2184c-1.0914-3.2743-3.4925-4.8022-7.4216-4.8022-5.457.2183-8.7313 3.056-8.9496 13.3152v13.3153c.2183 5.8937 1.7463 12.4422 8.9496 12.4422 3.7108-.2184 6.112-1.3097 7.8582-4.8023l.2183.2184v4.1474c0 2.8376-.6548 5.8936-4.3656 5.8936-1.0915 0-1.9646-.2183-2.6194-.6548-.6549-.2184-1.0914-.8732-1.0914-1.528zm16.153-27.5038v11.1325c0 4.3656-1.528 6.5485-4.1474 6.5485s-3.7108-2.8377-3.7108-6.3302V44.5298c.2183-3.7108-.2184-7.2033 3.7108-7.2033 4.1473 0 4.1473 5.457 4.1473 8.2947m32.3058 7.8582c0 3.4926.8732 9.8228-4.1473 9.8228-3.2742 0-4.1474-1.9646-4.1474-4.8023 0-1.528.2184-3.2742 1.528-4.3656 2.1828-1.7463 4.8022-3.2743 6.7668-4.8023zm9.3862 15.4981c-.4365-1.7462-.6548-3.4925-.6548-5.2388V41.9104c0-5.0205-.6549-11.1324-12.2238-11.1324-10.9142 0-13.097 5.0205-13.097 12.0055h8.2947c-.2183-3.2742.4366-5.457 4.3657-5.457 2.401 0 3.7108.4365 3.929 1.9645.8732 3.056-.4365 4.8022-4.1473 6.3302-6.7668 2.6194-12.6604 4.8023-12.6604 13.097 0 7.64 3.056 11.1325 10.041 11.1325 2.8377 0 5.457-1.7463 7.4216-4.8023 0 1.3097 0 2.6194.6549 3.9291h8.0764" fill-rule="evenodd"/><path d="M153.4527 31.8694h-8.513v37.1081h8.513V44.5298c0-4.1474.2183-6.985 4.1474-7.2033 3.929 0 4.1473 2.8376 4.1473 6.1119v25.5391h8.7314V44.5298c0-4.3657.6548-6.985 4.1473-7.2033 3.9291 0 4.1474 3.2742 4.1474 6.5485v25.1025h8.513V38.6362c0-3.9291-2.6194-7.8582-8.9496-7.8582-4.3656 0-6.985 1.7462-8.7313 4.8022-.4365-3.4925-4.8022-4.8022-7.8582-4.8022-2.8376.2183-6.3302.873-8.2947 4.8022v-3.7108"/><path d="M210.6428 53.4794c-.2183 3.4926.6548 9.8228-4.3657 9.8228-3.056 0-3.929-1.9646-3.929-4.8023 0-1.528.2183-3.2742 1.3096-4.3656 2.4011-1.7463 4.8023-3.2743 6.985-4.8023zm9.1678 15.4981c-.4365-1.7462-.6548-3.4925-.6548-5.2388V41.9104c.2183-5.0205-.6548-11.1324-12.2238-11.1324-10.6959 0-13.097 5.0205-12.8787 12.0055h8.0765c0-3.2742.6548-5.457 4.5839-5.457 2.1828 0 3.4925.4365 3.929 1.9645.655 3.056-.6548 4.8022-4.1473 6.3302-6.7668 2.6194-12.8787 4.8023-12.8787 13.097 0 7.64 3.056 11.1325 10.041 11.1325 2.8377 0 5.4571-1.7463 7.4216-4.8023h.2184c-.2184 1.3097 0 2.6194.4365 3.9291h8.0765" fill-rule="evenodd"/><path d="M236.4001 31.8694h-8.7313v37.1081h8.7313V44.5298c0-4.1474.2184-6.985 4.1474-7.2033 3.929 0 4.1474 2.8376 4.1474 6.1119v25.5391h8.513V44.5298c0-4.3657.6548-6.985 4.3656-7.2033 3.7108 0 4.1474 3.2742 4.1474 6.5485v25.1025h8.513V38.6362c0-3.9291-2.8376-7.8582-8.9496-7.8582-4.3656 0-6.985 1.7462-8.7313 4.8022-.6548-3.4925-4.8022-4.8022-7.8581-4.8022-2.8377.2183-6.3302.873-8.2948 4.8022v-3.7108"/><path d="M293.8085 53.6977c-.2184 3.4925.6548 9.8228-4.3657 9.8228-3.2742 0-3.929-1.9646-3.929-4.8023 0-1.528 0-3.2742 1.3096-4.3656 2.1828-1.9646 4.8022-3.2743 6.985-4.8023zm9.1678 15.4981c-.4365-1.7462-.6548-3.4925-.6548-5.2388V42.1287c.2183-5.0205-.6549-11.1325-12.2238-11.1325-10.6959 0-13.097 5.0206-12.8787 12.0056h8.0764c0-3.2742.6549-5.457 4.3657-5.457 2.401 0 3.7108.4365 4.1474 1.9645.6548 3.056-.6549 4.8022-4.3657 6.112-6.5485 2.8376-12.6604 4.8022-12.6604 13.3152 0 7.64 3.056 11.1325 10.041 11.1325 2.8377 0 5.457-1.7463 7.4216-4.8023h.2184c-.2184 1.3097-.2184 2.6194.4365 3.9291h8.0765" fill-rule="evenodd"/></svg>