<svg xmlns="http://www.w3.org/2000/svg" viewBox="0 0 200 199" width="200" height="199">
	<style>
		tspan { white-space:pre }
		.shp0 { fill: #0042e5 } 
		.shp1 { fill: #ffffff } 
	</style>
	<g >
		<path class="shp0" d="M95 0.24C92.84 0.34 90.11 0.54 88.93 0.69C87.75 0.85 85.82 1.14 84.64 1.33C83.46 1.53 81.64 1.85 80.6 2.05C79.55 2.24 77.4 2.73 75.83 3.11C74.26 3.5 71.9 4.15 70.6 4.55C69.29 4.95 66.82 5.79 65.12 6.42C63.42 7.05 60.2 8.41 57.98 9.43C55.75 10.46 52.64 12.04 51.07 12.94C49.5 13.84 46.98 15.37 45.48 16.35C43.97 17.33 41.93 18.72 40.95 19.46C39.97 20.19 38.36 21.42 37.38 22.19C36.4 22.96 34.11 24.95 32.29 26.6C30.48 28.25 27.6 31.15 25.9 33.05C24.21 34.94 21.56 38.15 20.02 40.18C18.48 42.21 16.6 44.88 15.84 46.12C15.08 47.37 13.76 49.61 12.91 51.12C12.05 52.62 10.72 55.19 9.95 56.82C9.17 58.46 8.18 60.65 7.74 61.7C7.3 62.74 6.52 64.78 6 66.21C5.49 67.65 4.84 69.63 4.56 70.61C4.28 71.59 3.79 73.31 3.48 74.42C3.16 75.53 2.68 77.56 2.4 78.93C2.12 80.31 1.74 82.23 1.55 83.21C1.37 84.19 1.05 86.44 0.85 88.21C0.64 89.97 0.36 93.29 0.22 95.58C0.03 98.59 0.03 100.85 0.22 103.78C0.37 106 0.65 109.27 0.85 111.03C1.05 112.8 1.54 115.95 1.94 118.04C2.33 120.14 3.2 123.77 3.86 126.13C4.52 128.48 5.48 131.58 6 133.02C6.51 134.46 7.43 136.76 8.03 138.14C8.63 139.51 9.78 142.02 10.59 143.72C11.39 145.42 13.02 148.42 14.2 150.38C15.39 152.34 16.93 154.75 17.63 155.73C18.33 156.71 19.45 158.26 20.11 159.17C20.77 160.08 22.31 162.01 23.54 163.45C24.77 164.89 26.92 167.25 28.32 168.69C29.72 170.12 31.99 172.33 33.35 173.58C34.72 174.83 36.52 176.38 37.36 177.02C38.2 177.67 39.6 178.73 40.46 179.39C41.32 180.05 43.31 181.43 44.88 182.46C46.45 183.49 49.13 185.14 50.83 186.12C52.54 187.1 55.64 188.7 57.74 189.67C59.83 190.64 62.78 191.9 64.29 192.46C65.79 193.03 68.79 194.04 70.95 194.71C73.11 195.38 75.63 196.09 76.55 196.29C77.46 196.48 79.77 196.97 81.67 197.37C83.57 197.76 86.03 198.18 87.14 198.3C88.26 198.42 90.08 198.62 91.19 198.74C92.3 198.87 96.27 198.97 100 198.97C103.73 198.97 107.7 198.87 108.81 198.74C109.92 198.62 111.74 198.42 112.86 198.3C113.97 198.18 116.49 197.76 118.45 197.36C120.42 196.97 122.67 196.5 123.45 196.31C124.24 196.12 125.52 195.78 126.31 195.56C127.1 195.34 128.7 194.85 129.88 194.48C131.06 194.11 133.58 193.25 135.48 192.58C137.38 191.91 140.86 190.41 143.21 189.25C145.57 188.08 149.16 186.13 151.19 184.91C153.22 183.7 155.68 182.14 156.67 181.45C157.65 180.76 158.79 179.96 159.2 179.67C159.62 179.38 160.63 178.61 161.44 177.96C162.26 177.3 163.69 176.14 164.62 175.37C165.55 174.6 167.65 172.67 169.29 171.08C170.92 169.48 173.34 166.95 174.66 165.46C175.99 163.97 177.93 161.67 178.98 160.36C180.02 159.06 181.68 156.76 182.66 155.25C183.64 153.75 185.07 151.5 185.84 150.26C186.61 149.02 188.07 146.34 189.08 144.32C190.09 142.29 191.42 139.4 192.03 137.9C192.65 136.39 193.58 133.99 194.09 132.55C194.61 131.11 195.39 128.7 195.83 127.2C196.27 125.69 196.96 122.91 197.37 121.02C197.78 119.12 198.27 116.82 198.46 115.91C198.66 114.99 198.81 113.81 198.81 113.29C198.81 112.77 198.92 111.96 199.05 111.51C199.18 111.05 199.45 108.16 199.65 105.09C199.96 100.15 199.97 98.89 199.66 94.27C199.47 91.39 199.2 88.29 199.06 87.37C198.93 86.46 198.72 85.01 198.59 84.16C198.47 83.31 198.05 81.12 197.66 79.29C197.27 77.46 196.46 74.2 195.84 72.04C195.23 69.88 193.92 66.08 192.94 63.6C191.95 61.11 190.26 57.32 189.18 55.16C188.1 53 186.6 50.22 185.84 48.98C185.08 47.74 183.57 45.38 182.49 43.75C181.4 42.11 179.78 39.86 178.89 38.75C177.99 37.63 176.34 35.65 175.22 34.35C174.09 33.04 172.97 31.82 172.74 31.62C172.5 31.43 171.88 30.73 171.37 30.08C170.85 29.42 169.97 28.51 169.4 28.05C168.83 27.6 167.15 26.15 165.67 24.84C164.19 23.53 162.23 21.87 161.31 21.14C160.39 20.41 158.09 18.75 156.19 17.43C154.29 16.12 151.45 14.33 149.88 13.45C148.31 12.57 145.47 11.1 143.57 10.17C141.67 9.25 138.83 7.96 137.26 7.33C135.69 6.69 133.07 5.73 131.43 5.2C129.79 4.67 126.95 3.84 125.12 3.34C123.29 2.85 119.86 2.11 117.5 1.71C115.14 1.31 112.41 0.87 111.43 0.73C110.45 0.58 107.29 0.37 104.4 0.24C101.52 0.11 99.11 0.02 99.05 0.04C98.98 0.06 97.16 0.15 95 0.24Z" />
		<path class="shp1" d="M96.31 19.76C94.92 19.87 92.89 20.24 91.43 20.65C90.05 21.04 88.1 21.74 87.08 22.21C86.07 22.68 84.7 23.38 84.05 23.78L82.86 24.49L82.86 30.19C84.24 29.14 85.34 28.4 86.19 27.88C87.04 27.36 88.54 26.59 89.52 26.18C90.51 25.76 92.11 25.2 93.1 24.93C94.23 24.63 96 24.4 97.98 24.32C99.9 24.24 101.7 24.29 102.74 24.47C103.65 24.62 105.15 24.97 106.07 25.24C106.99 25.51 108.6 26.13 109.64 26.63C110.69 27.13 112.38 28.13 113.39 28.86L115.24 30.19L115.24 24.49C113.67 23.5 112.36 22.81 111.31 22.32C110.26 21.83 108.44 21.15 107.26 20.81C106.08 20.47 104.48 20.1 103.69 19.98C102.9 19.86 101.46 19.72 100.48 19.67C99.49 19.62 97.62 19.66 96.31 19.76ZM77.14 24.03L74.89 26.28L75 37.8C88.33 37.92 88.75 37.95 89.76 38.44C90.4 38.75 92.11 40.22 93.99 42.07L97.14 45.17L101.07 45.16C106.05 40.27 107.93 38.64 108.45 38.38C109.32 37.96 110.02 37.92 116.25 37.86L123.1 37.8L123.1 26.27L118.57 21.75L118.45 33.17C107.89 33.4 107.42 33.44 106.31 33.96C105.49 34.33 104.19 35.43 102.14 37.47L99.17 40.43C95.66 36.91 94.11 35.47 93.45 34.97C92.8 34.47 91.89 33.92 91.43 33.74C90.86 33.52 88.88 33.38 85.12 33.29L79.64 33.17L79.39 21.77L77.14 24.03ZM74.52 47.73L74.52 52.66L77.13 55.28C77.23 58.32 77.21 59.2 77.14 59.2C77.08 59.2 73.43 55.62 69.05 51.24L61.07 43.27L54.64 43.27C75.68 64.28 81.87 70.38 81.96 70.38C82.06 70.38 82.14 66.6 82.15 61.99L82.15 53.61L79.03 50.52L79.17 47.43L84.99 47.43L89.64 52.07L96.31 52.07C89.77 45.53 87.57 43.53 87.02 43.27C86.16 42.84 85.55 42.8 80.3 42.8L74.52 42.8L74.52 47.73ZM111.19 43.18C110.72 43.38 108.49 45.41 106.1 47.81L101.84 52.07L108.45 52.06C112.14 48.55 113.43 47.47 113.69 47.41C113.95 47.35 115.24 47.32 116.55 47.36L118.93 47.43L119.05 50.64L116.17 53.38L116.19 70.61C137.23 49.7 143.33 43.55 143.33 43.45C143.33 43.35 141.92 43.27 140.18 43.27L137.03 43.27L120.95 59.32L120.95 55.28L123.58 52.66L123.57 42.8C113.14 42.81 111.86 42.88 111.19 43.18ZM44.06 57.23L44.05 60.51L53.21 69.66C48.65 69.66 47.59 69.77 46.96 70.03C46.4 70.27 44.42 72.04 41.55 74.88L37.02 79.37L28.69 79.54C25.92 80.84 24.69 81.6 24.17 82.07C23.64 82.53 22.81 83.49 22.33 84.19C21.84 84.9 21.2 86.11 20.91 86.9C20.42 88.25 20.38 88.77 20.31 96.35L20.24 104.37L26.79 104.38L32.83 98.19L53.93 98.2C57.54 101.79 58.58 102.86 58.58 102.89C58.58 102.92 53.51 102.97 47.32 103.01L36.07 103.07C34.41 104.05 32.78 105.58 31.37 107.09L28.81 109.84L20.24 109.84L24.88 114.34L30.6 114.37C35.39 109.56 37.08 108 37.44 107.81C37.99 107.52 39.82 107.46 48.33 107.46C53.96 107.46 58.57 107.54 58.56 107.64C58.56 107.74 56.82 109.5 54.69 111.56L50.83 115.29C45.39 115.31 43.81 115.26 43.81 115.19C43.81 115.13 44.83 114.06 46.07 112.81L48.33 110.56L41.69 110.56L32.74 119.59L53.21 119.59L67.67 105.21L56.07 93.69C37.21 93.68 32.14 93.77 31.61 93.91C30.97 94.08 29.91 94.9 27.92 96.77L25.12 99.38C25.01 89.23 25.02 89 25.56 87.85C25.87 87.2 26.48 86.31 26.93 85.88C27.37 85.45 28.22 84.86 28.81 84.57C29.78 84.09 30.3 84.04 34.4 83.98L38.93 83.91L48.66 74.18L71.79 74.17L76.79 79.42C81.68 79.41 83.1 79.33 83.1 79.23C83.1 79.13 80.98 76.94 78.39 74.36L73.69 69.66L59.76 69.66L44.08 53.95L44.06 57.23ZM146.19 61.94L138.45 69.66L124.4 69.64L114.94 79.29L121.31 79.43L126.43 74.18L149.52 74.18L159.17 83.94L171.31 83.95L175.48 88.21L175.46 96.41L172.74 99.13L167.26 93.67L141.99 93.68L130.48 105.21L144.88 119.59L165.36 119.59L156.31 110.55L149.88 110.55L154.64 115.31L147.26 115.31C141.26 109.32 139.52 107.56 139.52 107.52C139.52 107.49 144.26 107.47 150.06 107.47L160.6 107.48L167.5 114.35L173.21 114.34L177.98 109.86L169.52 109.84C164.75 104.92 163.58 103.9 162.74 103.51L161.55 102.95L139.4 102.95L144.17 98.19L165.24 98.19L172.74 105.84L179.98 98.31L179.98 86.19L167.26 73.24L160.83 73.23L167.02 79.41L161.07 79.4C153.91 72.21 151.9 70.38 151.31 70.11C150.58 69.77 149.77 69.67 147.8 69.67C146.39 69.66 145.24 69.58 145.24 69.48C145.24 69.39 147.27 67.27 149.76 64.79L154.29 60.27C154.29 55.57 154.2 54.21 154.11 54.21C154.01 54.21 150.44 57.69 146.19 61.94ZM89.56 61.52L87.15 64.07L87.14 89.75L91.67 94.27L91.66 65.98L94.07 63.72L104.17 63.71L106.42 65.98C106.43 87.63 106.51 93.91 106.61 93.91C106.71 93.92 107.78 92.93 108.99 91.72L111.19 89.51L111.19 64.19L105.83 58.94L91.96 58.96L89.56 61.52ZM96.66 83.27L96.66 99.26L99.05 101.64L101.43 99.26L101.43 67.28L96.67 67.28L96.66 83.27ZM48.72 81.67L46.46 83.93L67.5 83.93L88.81 105.21L60.72 133.26L60.71 140.27L66.97 140.27L54.64 152.64L61.31 152.64C71.16 142.75 73.81 140.27 74.08 140.27C74.49 140.27 74.52 140.51 74.52 143.96L74.52 147.65L87.14 160.25L87.14 164.17L91.67 168.69L91.67 158.23L79.05 145.62L79.05 140.27L83.33 140.27L88.21 145.29L94.88 145.27C87.94 138.35 85.9 136.52 85.24 136.18C84.18 135.65 84.02 135.64 74.82 135.58C69.68 135.55 65.48 135.47 65.48 135.4C65.48 135.34 72.15 128.54 80.3 120.3C88.45 112.06 95.15 105.24 95.18 105.14C95.21 105.05 89.48 99.22 82.44 92.2L69.64 79.42L50.99 79.41L48.72 81.67ZM115.78 92.31L102.88 105.21C126.2 128.53 132.92 135.35 132.86 135.41C132.79 135.47 128.56 135.54 123.45 135.58C114.35 135.64 114.14 135.65 112.98 136.18C112.1 136.58 110.68 137.83 107.56 140.94C105.23 143.25 103.33 145.2 103.33 145.27C103.33 145.33 104.81 145.36 106.61 145.32L109.88 145.25L114.88 140.27L119.05 140.27L119.05 145.62L106.43 158.23C106.42 165.96 106.48 168.26 106.55 168.33C106.63 168.4 107.7 167.43 108.93 166.19L111.18 163.93L111.19 160.13L123.57 147.76C123.57 140.43 123.59 140.27 124.05 140.27C124.35 140.27 126.75 142.49 130.71 146.46L136.9 152.64C141.89 152.73 143.33 152.7 143.33 152.64C143.33 152.57 140.57 149.76 137.2 146.4L131.07 140.27L137.38 140.27L137.38 133.26C116.15 112.07 109.87 105.71 109.73 105.44C109.5 105.02 110.59 103.86 120.03 94.45L130.59 83.93L151.79 83.93L147.26 79.41L128.69 79.41L115.78 92.31ZM63.32 93.5C63.32 93.53 65.95 96.18 69.16 99.38L75.01 105.21L44.04 136.11L44.17 142.42L81.55 105.08L69.88 93.44C64.81 93.44 63.33 93.46 63.32 93.5ZM122.56 99.32L116.67 105.21C145.54 134.06 154.01 142.35 154.11 142.25C154.22 142.14 154.3 140.72 154.29 139.09L154.29 136.11C130.3 112.25 123.33 105.24 123.33 105.15C123.32 105.05 125.9 102.45 129.05 99.38C132.2 96.31 134.77 93.71 134.77 93.62C134.77 93.52 133.34 93.44 131.61 93.44L128.45 93.44L122.56 99.32ZM89.1 118.65L81.89 125.89L89.4 133.37L108.93 133.38L116.31 126.01C105.24 114.83 101.94 111.56 101.85 111.54C101.75 111.52 101.67 112.98 101.66 114.78L101.66 118.04L109.64 126L106.79 128.86L91.31 128.87L88.45 126L96.44 118.04L96.3 111.4L89.1 118.65ZM96.67 160.25L96.67 174.99L92.98 174.98L87.14 169.16L87.14 175.58L91.07 179.5L107.02 179.51L111.19 175.34C111.19 170.45 111.1 169.28 110.95 169.28C110.82 169.28 109.46 170.57 107.92 172.14L105.12 174.99L101.43 174.99L101.43 145.51L96.67 145.51L96.67 160.25Z" />
	</g>
</svg>