<svg xmlns="http://www.w3.org/2000/svg" viewBox="0 0 1600 980" preserveAspectRatio="none">
  <defs>
    <linearGradient id="wood" x1="0" y1="0" x2="1" y2="1">
      <stop offset="0%" stop-color="#7b4d22"/>
      <stop offset="24%" stop-color="#b67a45"/>
      <stop offset="48%" stop-color="#6d421d"/>
      <stop offset="72%" stop-color="#bb8049"/>
      <stop offset="100%" stop-color="#815126"/>
    </linearGradient>
    <linearGradient id="boardGreen" x1="0" y1="0" x2="1" y2="1">
      <stop offset="0%" stop-color="#3f7746"/>
      <stop offset="38%" stop-color="#25562d"/>
      <stop offset="100%" stop-color="#173b21"/>
    </linearGradient>
    <filter id="greenNoise" x="-20%" y="-20%" width="140%" height="140%">
      <feTurbulence type="fractalNoise" baseFrequency="0.65" numOctaves="2" seed="8" result="noise"/>
      <feColorMatrix in="noise" type="saturate" values="0" result="mono"/>
      <feComponentTransfer in="mono" result="texture">
        <feFuncA type="table" tableValues="0 0 .02 .05"/>
      </feComponentTransfer>
    </filter>
  </defs>
  <rect width="1600" height="980" fill="transparent"/>
  <rect x="28" y="28" width="1544" height="924" rx="22" fill="url(#wood)"/>
  <rect x="42" y="42" width="1516" height="896" rx="18" fill="none" stroke="rgba(255,238,210,.22)" stroke-width="8"/>
  <g opacity=".18" fill="none" stroke-linecap="round">
    <path d="M70 170 C 320 96, 612 206, 888 150 S 1300 118, 1516 182" stroke="rgba(255,240,220,.42)" stroke-width="15"/>
    <path d="M74 338 C 276 278, 590 394, 864 334 S 1258 292, 1508 356" stroke="rgba(73,42,15,.35)" stroke-width="17"/>
    <path d="M80 560 C 326 500, 604 612, 892 548 S 1272 520, 1512 582" stroke="rgba(255,240,220,.28)" stroke-width="14"/>
    <path d="M72 790 C 320 722, 598 838, 900 774 S 1282 740, 1512 800" stroke="rgba(73,42,15,.34)" stroke-width="18"/>
  </g>
  <rect x="92" y="92" width="1416" height="796" rx="12" fill="url(#boardGreen)"/>
  <rect x="92" y="92" width="1416" height="796" rx="12" fill="#fff" filter="url(#greenNoise)" opacity=".95"/>
  <g opacity=".14" fill="none" stroke="#d6ead7" stroke-linecap="round">
    <path d="M210 216 C 386 166, 570 232, 782 192" stroke-width="9"/>
    <path d="M1086 238 C 1196 202, 1320 246, 1416 214" stroke-width="8"/>
    <path d="M214 706 C 432 662, 658 736, 914 676" stroke-width="10"/>
    <path d="M1048 650 C 1168 616, 1292 664, 1414 626" stroke-width="9"/>
  </g>
  <rect x="92" y="92" width="1416" height="796" rx="12" fill="none" stroke="rgba(242,249,240,.12)" stroke-width="2"/>
</svg>
