<svg xmlns="http://www.w3.org/2000/svg" viewBox="0 0 760 760">
  <defs>
    <filter id="paperNoise" x="-20%" y="-20%" width="140%" height="140%">
      <feTurbulence type="fractalNoise" baseFrequency="0.82" numOctaves="2" seed="14" result="noise"/>
      <feColorMatrix in="noise" type="saturate" values="0" result="mono"/>
      <feComponentTransfer in="mono" result="paperDust">
        <feFuncA type="table" tableValues="0 0 .02 .05"/>
      </feComponentTransfer>
    </filter>
    <linearGradient id="topPaper" x1="0" y1="0" x2="0" y2="1">
      <stop offset="0%" stop-color="#f8f0dd"/>
      <stop offset="100%" stop-color="#ebddbc"/>
    </linearGradient>
    <linearGradient id="thickness" x1="0" y1="0" x2="1" y2="1">
      <stop offset="0%" stop-color="#cfbf96"/>
      <stop offset="100%" stop-color="#b5a57d"/>
    </linearGradient>
    <filter id="shadow" x="-30%" y="-30%" width="180%" height="200%">
      <feDropShadow dx="10" dy="18" stdDeviation="16" flood-color="rgba(0,0,0,.24)"/>
    </filter>
  </defs>
  <g filter="url(#shadow)">
    <path d="M160 126 L548 126 Q 604 126 612 180 L620 514 Q 618 566 572 588 L210 608 Q 148 608 138 552 L124 182 Q 122 132 160 126 Z" fill="url(#thickness)" opacity=".88" transform="translate(14 18)"/>
    <path d="M160 126 L548 126 Q 604 126 612 180 L620 514 Q 618 566 572 588 L210 608 Q 148 608 138 552 L124 182 Q 122 132 160 126 Z" fill="url(#topPaper)"/>
    <path d="M160 126 L548 126 Q 604 126 612 180 L620 514 Q 618 566 572 588 L210 608 Q 148 608 138 552 L124 182 Q 122 132 160 126 Z" fill="#fff" filter="url(#paperNoise)" opacity=".8"/>
    <path d="M522 608 C 560 598 592 578 620 536 C 626 572 624 606 612 640 C 574 638 548 626 522 608 Z" fill="rgba(128,103,63,.32)"/>
    <path d="M186 164 L572 164" stroke="rgba(97,112,143,.18)" stroke-width="3" stroke-linecap="round"/>
    <path d="M176 214 L578 214" stroke="rgba(97,112,143,.18)" stroke-width="3" stroke-linecap="round"/>
    <path d="M170 264 L582 264" stroke="rgba(97,112,143,.18)" stroke-width="3" stroke-linecap="round"/>
    <path d="M166 314 L586 314" stroke="rgba(97,112,143,.18)" stroke-width="3" stroke-linecap="round"/>
    <path d="M164 364 L588 364" stroke="rgba(97,112,143,.18)" stroke-width="3" stroke-linecap="round"/>
    <path d="M164 414 L588 414" stroke="rgba(97,112,143,.18)" stroke-width="3" stroke-linecap="round"/>
    <path d="M166 464 L584 464" stroke="rgba(97,112,143,.18)" stroke-width="3" stroke-linecap="round"/>
    <path d="M170 514 L576 514" stroke="rgba(97,112,143,.18)" stroke-width="3" stroke-linecap="round"/>
    <path d="M176 564 L548 564" stroke="rgba(97,112,143,.18)" stroke-width="3" stroke-linecap="round"/>
    <path d="M196 146 C 284 134, 388 140, 492 138" fill="none" stroke="rgba(255,255,255,.14)" stroke-width="8" stroke-linecap="round"/>
    <path d="M162 126 L548 126 Q 604 126 612 180" fill="none" stroke="rgba(255,255,255,.18)" stroke-width="5"/>
  </g>
</svg>

