<svg xmlns="http://www.w3.org/2000/svg" viewBox="0 0 760 760">
  <defs>
    <filter id="paperNoise" x="-20%" y="-20%" width="140%" height="140%">
      <feTurbulence type="fractalNoise" baseFrequency="0.86" numOctaves="2" seed="23" result="noise"/>
      <feColorMatrix in="noise" type="saturate" values="0" result="mono"/>
      <feComponentTransfer in="mono" result="paperDust">
        <feFuncA type="table" tableValues="0 0 .018 .04"/>
      </feComponentTransfer>
    </filter>
    <linearGradient id="paperFront" x1="0" y1="0" x2="0" y2="1">
      <stop offset="0%" stop-color="#ffe4eb"/>
      <stop offset="100%" stop-color="#f8c8d6"/>
    </linearGradient>
    <linearGradient id="paperSide" x1="0" y1="0" x2="1" y2="1">
      <stop offset="0%" stop-color="#efbfcd"/>
      <stop offset="100%" stop-color="#d9a7b6"/>
    </linearGradient>
    <filter id="shadow" x="-30%" y="-30%" width="180%" height="200%">
      <feDropShadow dx="8" dy="14" stdDeviation="12" flood-color="rgba(0,0,0,.18)"/>
    </filter>
  </defs>
  <g filter="url(#shadow)">
    <path d="M84 122 L642 114 Q 694 114 704 166 L714 540 Q 712 606 654 632 L142 646 Q 88 646 74 592 L60 170 Q 58 128 84 122 Z" fill="url(#paperSide)" opacity=".64" transform="translate(6 9)"/>
    <path d="M84 122 L642 114 Q 694 114 704 166 L714 540 Q 712 606 654 632 L142 646 Q 88 646 74 592 L60 170 Q 58 128 84 122 Z" fill="url(#paperFront)"/>
    <path d="M84 122 L642 114 Q 694 114 704 166 L714 540 Q 712 606 654 632 L142 646 Q 88 646 74 592 L60 170 Q 58 128 84 122 Z" fill="#fff" filter="url(#paperNoise)" opacity=".62"/>
    <path d="M118 154 C 220 142 344 142 522 148" fill="none" stroke="rgba(255,255,255,.22)" stroke-width="8" stroke-linecap="round"/>
    <path d="M110 192 C 166 182 224 188 280 182" fill="none" stroke="rgba(255,255,255,.10)" stroke-width="7" stroke-linecap="round"/>
    <path d="M144 306 C 188 288 248 304 300 288" fill="none" stroke="rgba(0,0,0,.045)" stroke-width="7" stroke-linecap="round"/>
    <path d="M242 438 C 286 426 344 438 390 424" fill="none" stroke="rgba(255,255,255,.08)" stroke-width="6" stroke-linecap="round"/>
    <path d="M548 610 C 600 604 638 578 674 530 C 682 578 678 620 666 656 C 612 650 580 634 548 610 Z" fill="rgba(126,100,64,.17)"/>
    <path d="M112 184 L664 178" stroke="rgba(90,103,136,.12)" stroke-width="3" stroke-linecap="round"/>
    <path d="M104 236 L670 232" stroke="rgba(90,103,136,.12)" stroke-width="3" stroke-linecap="round"/>
    <path d="M100 288 L674 286" stroke="rgba(90,103,136,.12)" stroke-width="3" stroke-linecap="round"/>
    <path d="M98 340 L676 340" stroke="rgba(90,103,136,.12)" stroke-width="3" stroke-linecap="round"/>
    <path d="M98 392 L676 394" stroke="rgba(90,103,136,.12)" stroke-width="3" stroke-linecap="round"/>
    <path d="M100 444 L672 450" stroke="rgba(90,103,136,.12)" stroke-width="3" stroke-linecap="round"/>
    <path d="M102 496 L668 504" stroke="rgba(90,103,136,.12)" stroke-width="3" stroke-linecap="round"/>
    <path d="M108 548 L658 560" stroke="rgba(90,103,136,.12)" stroke-width="3" stroke-linecap="round"/>
    <path d="M118 600 L624 612" stroke="rgba(90,103,136,.12)" stroke-width="3" stroke-linecap="round"/>
  </g>
</svg>

