<svg xmlns="http://www.w3.org/2000/svg" viewBox="0 0 760 760">
  <defs>
    <filter id="paperNoise" x="-20%" y="-20%" width="140%" height="140%">
      <feTurbulence type="fractalNoise" baseFrequency="0.9" numOctaves="2" seed="19" result="noise"/>
      <feColorMatrix in="noise" type="saturate" values="0" result="mono"/>
      <feComponentTransfer in="mono" result="paperDust">
        <feFuncA type="table" tableValues="0 0 .025 .055"/>
      </feComponentTransfer>
    </filter>
    <linearGradient id="paperFront" x1="0" y1="0" x2="0" y2="1">
      <stop offset="0%" stop-color="#f7efdb"/>
      <stop offset="100%" stop-color="#e7d9b5"/>
    </linearGradient>
    <linearGradient id="paperSide" x1="0" y1="0" x2="1" y2="1">
      <stop offset="0%" stop-color="#c9b786"/>
      <stop offset="100%" stop-color="#aa9869"/>
    </linearGradient>
    <filter id="shadow" x="-30%" y="-30%" width="180%" height="200%">
      <feDropShadow dx="12" dy="20" stdDeviation="15" flood-color="rgba(0,0,0,.24)"/>
    </filter>
  </defs>
  <g filter="url(#shadow)">
    <path d="M170 138 L552 130 Q 610 128 620 186 L628 512 Q 626 570 578 594 L216 610 Q 148 610 136 554 L124 190 Q 122 140 170 138 Z" fill="url(#paperSide)" opacity=".9" transform="translate(10 16)"/>
    <path d="M170 138 L552 130 Q 610 128 620 186 L628 512 Q 626 570 578 594 L216 610 Q 148 610 136 554 L124 190 Q 122 140 170 138 Z" fill="url(#paperFront)"/>
    <path d="M170 138 L552 130 Q 610 128 620 186 L628 512 Q 626 570 578 594 L216 610 Q 148 610 136 554 L124 190 Q 122 140 170 138 Z" fill="#fff" filter="url(#paperNoise)" opacity=".78"/>
    <path d="M188 170 C 280 158 368 154 474 158" fill="none" stroke="rgba(255,255,255,.18)" stroke-width="7" stroke-linecap="round"/>
    <path d="M186 196 C 244 182 308 194 356 182" fill="none" stroke="rgba(255,255,255,.08)" stroke-width="6" stroke-linecap="round"/>
    <path d="M164 264 C 212 248 262 260 300 244" fill="none" stroke="rgba(0,0,0,.06)" stroke-width="6" stroke-linecap="round"/>
    <path d="M482 564 C 530 558 566 534 598 492 C 606 536 602 574 592 610 C 546 606 516 592 482 564 Z" fill="rgba(126,100,64,.24)"/>
    <path d="M180 182 L586 176" stroke="rgba(90,103,136,.18)" stroke-width="3" stroke-linecap="round"/>
    <path d="M172 232 L592 228" stroke="rgba(90,103,136,.18)" stroke-width="3" stroke-linecap="round"/>
    <path d="M168 282 L596 280" stroke="rgba(90,103,136,.18)" stroke-width="3" stroke-linecap="round"/>
    <path d="M166 332 L598 332" stroke="rgba(90,103,136,.18)" stroke-width="3" stroke-linecap="round"/>
    <path d="M166 382 L598 384" stroke="rgba(90,103,136,.18)" stroke-width="3" stroke-linecap="round"/>
    <path d="M168 432 L594 438" stroke="rgba(90,103,136,.18)" stroke-width="3" stroke-linecap="round"/>
    <path d="M170 482 L590 490" stroke="rgba(90,103,136,.18)" stroke-width="3" stroke-linecap="round"/>
    <path d="M176 532 L580 544" stroke="rgba(90,103,136,.18)" stroke-width="3" stroke-linecap="round"/>
    <path d="M184 582 L550 594" stroke="rgba(90,103,136,.18)" stroke-width="3" stroke-linecap="round"/>
  </g>
</svg>

