<svg version="1.1" class="logo-home" xmlns="http://www.w3.org/2000/svg" xmlns:xlink="http://www.w3.org/1999/xlink" x="0px" y="0px"
	 viewBox="0 0 802 113.1" xml:space="preserve">
<path d="M795.9,36.4c0-20.2-9-31.4-30.9-31.4c-25.6,0-33.4,17.1-33.4,50.5c0,34.3,4.9,52.7,29.5,52.7c9.5,0,16-3.3,20.8-11.1h0.3
	v9.2H797V52.7h-32.4v14.7h13.2v10.1c0,10.7-7.5,15.8-12.4,15.8c-11.5,0-13.8-15-13.8-38.9c0-24.9,4-34.8,13.6-34.8
	c8.2,0,11.4,9.5,11.4,16.7L795.9,36.4L795.9,36.4z M654.5,6.9v99.2h18.3V36.7h0.3l24.5,69.5h22.8V6.9H702v68h-0.3l-24.2-68H654.5z
	 M570.3,106.2h20.8l4.6-21h26.4l4.6,21h20.8L621.4,6.9h-24.7L570.3,106.2z M608.8,24.2h0.3l9.6,44.6h-19.5L608.8,24.2z M563.7,106.2
	V89.8h-35.4V6.9h-20v99.2L563.7,106.2L563.7,106.2z M394.5,6.9v16.4h21.7v82.8h20V23.4h21.7V6.9H394.5z M322,6.9v69.2
	c0,26.6,15.4,32,31.7,32s31.7-6.8,31.7-32V6.9h-20v69.2c0,9.9-2.2,17.2-11.7,17.2c-9.5,0-11.7-7.4-11.7-17.2V6.9H322z M219.4,106.2
	h18.4V27h0.3l17.6,79.2h15.6L288.9,27h0.3v79.2h18.4V6.9h-29.6L263.6,77h-0.3L249.1,6.9h-29.8V106.2z M208,106.2V89.8h-35.4V6.9h-20
	v99.2L208,106.2L208,106.2z M84,6.9v99.2h56.8V89.8H104V63.1h33.4V46.7H104V23.4h35.4V6.9H84z M5,106.2h20V62.1h23.4v44.1h20V6.9
	h-20v38H25v-38H5V106.2z"/>
</svg>