<svg xmlns="http://www.w3.org/2000/svg" width="1200" height="630" viewBox="0 0 1200 630" role="img" aria-label="Zo2y interests illustration">
  <defs>
    <linearGradient id="bg" x1="0" y1="0" x2="1" y2="1">
      <stop offset="0%" stop-color="#0b1633" />
      <stop offset="100%" stop-color="#1b2f61" />
    </linearGradient>
    <linearGradient id="accent" x1="0" y1="0" x2="1" y2="1">
      <stop offset="0%" stop-color="#f59e0b" />
      <stop offset="100%" stop-color="#ffbf59" />
    </linearGradient>
  </defs>

  <rect width="1200" height="630" fill="url(#bg)" />
  <circle cx="165" cy="90" r="170" fill="#f59e0b" opacity="0.12" />
  <circle cx="1120" cy="35" r="220" fill="#7ea2ff" opacity="0.12" />

  <text x="85" y="165" fill="#ffffff" font-family="Inter, Segoe UI, Arial, sans-serif" font-size="68" font-weight="800">Zo2y</text>
  <text x="85" y="218" fill="#c9d7f2" font-family="Inter, Segoe UI, Arial, sans-serif" font-size="36" font-weight="500">
    All your interests in one place
  </text>

  <rect x="85" y="275" width="292" height="220" rx="24" fill="#132347" stroke="#2e4b88" />
  <rect x="112" y="312" width="238" height="135" rx="16" fill="#0f1d40" stroke="#375797" />
  <rect x="147" y="468" width="168" height="10" rx="5" fill="url(#accent)" />
  <circle cx="231" cy="382" r="26" fill="#f59e0b" opacity="0.2" />
  <rect x="220" y="378" width="22" height="8" rx="3" fill="#f59e0b" />
  <rect x="227" y="371" width="8" height="22" rx="3" fill="#f59e0b" />
  <circle cx="286" cy="382" r="7" fill="#f59e0b" />
  <circle cx="306" cy="382" r="7" fill="#f59e0b" />

  <rect x="454" y="245" width="292" height="250" rx="24" fill="#132347" stroke="#2e4b88" />
  <rect x="484" y="322" width="232" height="106" rx="12" fill="#0f1d40" stroke="#375797" />
  <rect x="506" y="292" width="188" height="22" rx="10" fill="#1c2f5d" />
  <circle cx="521" cy="303" r="6" fill="#f59e0b" />
  <circle cx="545" cy="303" r="6" fill="#f59e0b" opacity="0.6" />
  <polygon points="588,346 588,404 646,375" fill="#f59e0b" />

  <rect x="823" y="275" width="292" height="220" rx="24" fill="#132347" stroke="#2e4b88" />
  <rect x="855" y="307" width="228" height="128" rx="14" fill="#0f1d40" stroke="#375797" />
  <rect x="885" y="452" width="168" height="10" rx="5" fill="url(#accent)" />
  <circle cx="967" cy="371" r="44" fill="#f59e0b" opacity="0.16" />
  <rect x="929" y="366" width="76" height="12" rx="6" fill="#f59e0b" />
  <circle cx="931" cy="372" r="12" fill="#f59e0b" />
  <circle cx="1003" cy="372" r="12" fill="#f59e0b" />
</svg>
