<svg xmlns="http://www.w3.org/2000/svg" height="800" width="1200" viewBox="-375.3 -89.5 3252.6 537"><path d="M43 225s-2 31-25 31l-18-1v99l71 4s88-9 93-109V15H43v210M325 15v328H203V15h122m164 231V15H366v328h218v-97h-95M818 81s-26 0-29 17c0 0-3 16 21 23l37 9s77 20 77 102c0 0 0 53-46 88 0 0-44 33-105 31 0 0-53-3-110-36l25-86s45 36 92 35c0 0 30 0 30-23 0 0-1-16-37-20l-38-10s-65-26-64-92c0 0 0-49 37-84 0 0 37-35 93-35 0 0 63 0 110 26l-30 73s-36-18-63-18m211-66L916 343h108l9-27h101l8 27h109L1138 15zm54 135l26 84h-51zm391 16l-94-151h-110v328h111V191l94 152h108V15h-109v151m149-151v328h144c67 0 115-48 115-48 47-48 48-116 48-116-1-68-48-116-48-116-48-48-115-48-115-48zm108 98h23c26 0 46 20 46 20 19 19 19 46 19 46 0 27-19 47-19 47-20 19-46 19-46 19h-23zm432 107v-86h-98v-33h108V15h-222v328h225v-87h-111v-36h98m45-205v328h110V236l62 107h122l-80-130c34-13 54-52 54-52 25-52-16-104-16-104-31-40-103-42-103-42zm110 84h23c20 1 29 12 29 12l4 8 3 11-3 11-4 8c-10 11-29 11-29 11h-23z"/></svg>