<svg xmlns="http://www.w3.org/2000/svg" viewBox="0 0 800 520" role="img" aria-label="Fashion illustration">
  <defs>
    <linearGradient id="bgFashion" x1="0" y1="0" x2="1" y2="1">
      <stop offset="0%" stop-color="#0a1730"/>
      <stop offset="60%" stop-color="#1a2f5a"/>
      <stop offset="100%" stop-color="#0b1b36"/>
    </linearGradient>
    <linearGradient id="fashionAccent" x1="0" y1="0" x2="1" y2="1">
      <stop offset="0%" stop-color="#38bdf8"/>
      <stop offset="100%" stop-color="#22d3ee"/>
    </linearGradient>
  </defs>
  <rect width="800" height="520" rx="36" fill="url(#bgFashion)"/>
  <circle cx="640" cy="90" r="100" fill="#1c3b73" opacity="0.4"/>
  <circle cx="140" cy="430" r="140" fill="#122653" opacity="0.35"/>

  <g transform="translate(150 110)">
    <path d="M90 50l50-30 50 30 40-20 40 60-30 30v200H80V120l-30-30 40-60z" fill="url(#fashionAccent)"/>
    <rect x="110" y="150" width="120" height="150" rx="14" fill="#0b1633" opacity="0.6"/>
    <rect x="130" y="170" width="80" height="12" rx="6" fill="#f8fafc" opacity="0.8"/>
    <rect x="130" y="192" width="60" height="10" rx="5" fill="#f8fafc" opacity="0.6"/>
  </g>

  <g transform="translate(470 150)">
    <rect x="0" y="0" width="170" height="230" rx="20" fill="#132347" stroke="#2b4c82" stroke-width="2"/>
    <rect x="20" y="22" width="130" height="80" rx="12" fill="#0c1f42"/>
    <rect x="20" y="116" width="80" height="12" rx="6" fill="#2b4c82"/>
    <rect x="20" y="138" width="110" height="10" rx="5" fill="#2b4c82"/>
    <circle cx="130" cy="190" r="26" fill="#f59e0b"/>
    <rect x="118" y="160" width="24" height="14" rx="7" fill="#0b1633"/>
  </g>

  <g transform="translate(120 380)">
    <rect x="0" y="0" width="240" height="70" rx="20" fill="#122751" stroke="#2b4c82" stroke-width="2"/>
    <rect x="18" y="18" width="90" height="34" rx="10" fill="#38bdf8"/>
    <rect x="120" y="18" width="90" height="12" rx="6" fill="#2d4f88"/>
    <rect x="120" y="36" width="70" height="10" rx="5" fill="#2d4f88"/>
  </g>
</svg>
