<svg xmlns="http://www.w3.org/2000/svg" viewBox="0 0 800 520" role="img" aria-label="Food illustration">
  <defs>
    <linearGradient id="bgFood" x1="0" y1="0" x2="1" y2="1">
      <stop offset="0%" stop-color="#0b1b34"/>
      <stop offset="60%" stop-color="#132c53"/>
      <stop offset="100%" stop-color="#0a162c"/>
    </linearGradient>
    <linearGradient id="foodAccent" x1="0" y1="0" x2="1" y2="1">
      <stop offset="0%" stop-color="#f97316"/>
      <stop offset="100%" stop-color="#f59e0b"/>
    </linearGradient>
  </defs>
  <rect width="800" height="520" rx="36" fill="url(#bgFood)"/>
  <circle cx="130" cy="110" r="90" fill="#1a3a70" opacity="0.35"/>
  <circle cx="670" cy="420" r="120" fill="#122652" opacity="0.35"/>

  <g transform="translate(120 150)">
    <rect x="0" y="0" width="300" height="60" rx="30" fill="#f59e0b"/>
    <rect x="10" y="20" width="280" height="20" rx="10" fill="#2d1a10"/>
    <rect x="0" y="50" width="300" height="50" rx="25" fill="url(#foodAccent)"/>
    <rect x="0" y="90" width="300" height="50" rx="25" fill="#f59e0b"/>
    <circle cx="70" cy="75" r="10" fill="#ffe6a0"/>
    <circle cx="130" cy="75" r="10" fill="#ffe6a0"/>
    <circle cx="200" cy="75" r="10" fill="#ffe6a0"/>
  </g>

  <g transform="translate(480 130)">
    <rect x="40" y="0" width="160" height="220" rx="24" fill="#132347" stroke="#2b4c82" stroke-width="2"/>
    <rect x="60" y="28" width="120" height="120" rx="16" fill="#0c1f42"/>
    <rect x="90" y="160" width="60" height="14" rx="7" fill="#2b4c82"/>
    <rect x="0" y="210" width="240" height="30" rx="15" fill="#f59e0b"/>
    <rect x="90" y="-40" width="20" height="60" rx="10" fill="#f59e0b"/>
  </g>

  <g transform="translate(460 360)">
    <rect x="0" y="0" width="240" height="70" rx="20" fill="#14294f" stroke="#2b4c82" stroke-width="2"/>
    <rect x="16" y="18" width="90" height="34" rx="10" fill="#f97316"/>
    <rect x="120" y="18" width="90" height="12" rx="6" fill="#2d4f88"/>
    <rect x="120" y="36" width="70" height="10" rx="5" fill="#2d4f88"/>
  </g>
</svg>
