<svg xmlns="http://www.w3.org/2000/svg" viewBox="0 0 800 520" role="img" aria-label="Interests illustration">
  <defs>
    <linearGradient id="bgInterests" x1="0" y1="0" x2="1" y2="1">
      <stop offset="0%" stop-color="#0b1633"/>
      <stop offset="55%" stop-color="#142a52"/>
      <stop offset="100%" stop-color="#0a172f"/>
    </linearGradient>
  </defs>
  <rect width="800" height="520" rx="36" fill="url(#bgInterests)"/>
  <circle cx="650" cy="100" r="90" fill="#1f3d78" opacity="0.35"/>
  <circle cx="160" cy="420" r="140" fill="#122653" opacity="0.35"/>

  <g transform="translate(120 140)">
    <rect x="0" y="0" width="560" height="240" rx="26" fill="#132347" stroke="#2b4c82" stroke-width="2"/>
    <rect x="24" y="26" width="120" height="36" rx="18" fill="#f59e0b"/>
    <rect x="158" y="26" width="140" height="36" rx="18" fill="#38bdf8"/>
    <rect x="314" y="26" width="110" height="36" rx="18" fill="#22c55e"/>
    <rect x="438" y="26" width="90" height="36" rx="18" fill="#f97316"/>

    <rect x="24" y="82" width="160" height="34" rx="17" fill="#1f3d78"/>
    <rect x="196" y="82" width="120" height="34" rx="17" fill="#1f3d78"/>
    <rect x="328" y="82" width="180" height="34" rx="17" fill="#1f3d78"/>

    <rect x="24" y="132" width="140" height="34" rx="17" fill="#1f3d78"/>
    <rect x="176" y="132" width="150" height="34" rx="17" fill="#1f3d78"/>
    <rect x="338" y="132" width="190" height="34" rx="17" fill="#1f3d78"/>

    <rect x="24" y="182" width="110" height="34" rx="17" fill="#1f3d78"/>
    <rect x="146" y="182" width="160" height="34" rx="17" fill="#1f3d78"/>
    <rect x="320" y="182" width="150" height="34" rx="17" fill="#1f3d78"/>
  </g>
</svg>
