<?xml version="1.0" encoding="UTF-8"?>
<!-- Created with Inkscape (http://www.inkscape.org/) -->
<svg width="400" height="200" version="1.1" xmlns="http://www.w3.org/2000/svg" xmlns:cc="http://creativecommons.org/ns#" xmlns:dc="http://purl.org/dc/elements/1.1/" xmlns:rdf="http://www.w3.org/1999/02/22-rdf-syntax-ns#">
 <metadata>
  <rdf:RDF>
   <cc:Work rdf:about="">
    <dc:description/>
    <dc:subject>
     <rdf:Bag>
      <rdf:li>hash</rdf:li>
      <rdf:li/>
      <rdf:li>education</rdf:li>
      <rdf:li>book</rdf:li>
     </rdf:Bag>
    </dc:subject>
    <dc:publisher>
     <cc:Agent rdf:about="http://www.openclipart.org">
      <dc:title>Nathan Eady</dc:title>
     </cc:Agent>
    </dc:publisher>
    <dc:creator>
     <cc:Agent>
      <dc:title>Nathan Eady</dc:title>
     </cc:Agent>
    </dc:creator>
    <dc:rights>
     <cc:Agent>
      <dc:title>Nathan Eady</dc:title>
     </cc:Agent>
    </dc:rights>
    <dc:date/>
    <dc:format>image/svg+xml</dc:format>
    <dc:type rdf:resource="http://purl.org/dc/dcmitype/StillImage"/>
    <cc:license rdf:resource="http://web.resource.org/cc/PublicDomain"/>
    <dc:language>en</dc:language>
   </cc:Work>
   <cc:License rdf:about="http://web.resource.org/cc/PublicDomain">
    <cc:permits rdf:resource="http://web.resource.org/cc/Reproduction"/>
    <cc:permits rdf:resource="http://web.resource.org/cc/Distribution"/>
    <cc:permits rdf:resource="http://web.resource.org/cc/DerivativeWorks"/>
   </cc:License>
  </rdf:RDF>
 </metadata>
 <path d="m10 76.091c26.125 40.251 49.585 73.658 75.71 113.91 53.673-23.629 87.057-49.096 136.78-47.108 11.141 6.5784 24.736 3.8369 29.516-3.3762 35.494-25.922 89.649-22.342 137.99-24.572l-140.07-95.27c-45.515 0.38618-72.141 0.90196-100.94 32.389-30.06-25.42-82.656-10.314-138.99 24.028z" fill="#001873" fill-rule="evenodd" stroke-width="0"/>
 <g transform="matrix(1.0476 0 0 .96054 -1.9522 19.011)">
  <path d="m212.37 123.2c2.2707-16.765 11.468-25.11 10.877-25.865 8.2066 2.4984 16.034 12.883 18.439 22.84 30.12-24.333 69.655-25.441 112.5-25.51-3.3931-10.01-4.6372-19.779-2.4316-27.244l-107.06-75.203c-46.186 8.9973-79.631-9.3285-104.58 26.301-31.088-22.44-84.012-10.486-117.05 13.4l-2.4883 28.273c22.394 35.627 44.789 71.255 67.184 106.88 39.699-20.868 86.451-47.715 124.61-43.875z" color="#000000" fill="#fff" fill-rule="evenodd" stroke-width="3" style="-inkscape-stroke:none"/>
 </g>
 <g transform="matrix(1.0476 0 0 .96054 -1.9522 19.011)" fill="#001873">
  <path d="m245.03-9.3809c-22.839 4.4491-43.221 2.2509-60.676 3.2598-17.054 0.98574-32.037 5.4319-44.586 22.584-11.773-8.0306-26.263-11.333-41.494-11.127-5.2528 0.070908-10.594 0.55576-15.939 1.4062-21.382 3.402-42.924 12.631-59.646 24.721l-1.1426 0.82617-1.9375 29.055c22.394 35.627 45.83 72.965 68.224 108.59 39.739-20.888 88.777-48.16 126.13-44.401 1.1061-8.166 4.1759-15.829 6.5-20.188 1.162-2.1791 2.2365-3.8686 3.0078-5.0977 0.25306-0.40321 0.42076-0.69875 0.60743-1.0176 6.9603 2.9265 13.996 12.364 16.152 21.289l0.55664 2.3047 1.8438-1.4902c29.638-23.944 68.74-25.107 111.56-25.176l2.0879-0.0039-0.66992-1.9785c-3.3336-9.8341-4.4754-19.361-2.4141-26.338l0.52149-1.7598zm-0.69532 3.1699 103.33 71.838c-4.0588-0.28031-8.1644-0.49656-12.344-0.57617-38.943-0.74184-82.151 7.5426-111.96 30.316l-81.223-77.004c12.037-16.532 25.703-20.526 42.393-21.49 16.893-0.97639 36.742 1.2941 59.809-3.084zm-146.06 14.549c15.242-0.2049 29.566 3.2017 40.895 11.355l80.156 75.992c-59.691-1.8946-99.956 21.079-128.21 41.131l-65.482-103.68c16.159-11.405 36.789-20.193 57.172-23.436 5.2077-0.82857 10.39-1.2989 15.471-1.3672zm-73.959 28.303 64.713 102.22 0.01953-0.0117 0.21875 0.34571v2e-3c-0.11821 1.2207-0.23543 2.7108-0.35352 4.0273-0.63224 6.4345-1.1213 13.31-1.7207 19.607-0.01236 0.13851-0.02475 0.28623-0.03711 0.42383-21.513-34.226-43.026-68.45-64.539-102.68zm303.78 31.39c2.4017-0.02632 4.7919-0.01811 7.166 0.02539 5.0044 0.0917 9.904 0.38516 14.727 0.76953-1.5723 7.1151-0.53074 15.604 2.2109 24.371-41.35 0.10201-79.914 1.4744-109.81 24.57-2.6871-8.7377-8.758-17.245-16.109-20.785 27.145-20.18 65.793-28.556 101.82-28.951zm-116.3 30.527c2.9544-0.0078 5.999 0.09538 9.0566 0.21484-0.76151 1.2125-1.8503 2.9256-3.043 5.1621-2.3039 4.3202-4.8962 10.55-6.1641 18.461-37.929-3.1037-82.965 22.412-121.65 42.83 0.02177-0.23546 0.04269-0.50362 0.06445-0.74218 0.74941-7.0563 1.2069-15.113 1.9258-21.955 0.0837-0.9188 0.16832-2.004 0.25195-2.8711 26.896-19.177 64.273-40.954 119.56-41.1z" color="#000000" fill="#001873" fill-rule="evenodd" style="-inkscape-stroke:none"/>
 </g>
</svg>
