<svg xmlns="http://www.w3.org/2000/svg" viewBox="0 0 800 520" role="img" aria-label="Travel illustration">
  <defs>
    <linearGradient id="bgTravel" x1="0" y1="0" x2="1" y2="1">
      <stop offset="0%" stop-color="#0b1f3b"/>
      <stop offset="65%" stop-color="#0f3262"/>
      <stop offset="100%" stop-color="#0a1630"/>
    </linearGradient>
    <linearGradient id="sunGlow" x1="0" y1="0" x2="1" y2="1">
      <stop offset="0%" stop-color="#f59e0b"/>
      <stop offset="100%" stop-color="#fde68a"/>
    </linearGradient>
  </defs>
  <rect width="800" height="520" rx="36" fill="url(#bgTravel)"/>
  <circle cx="640" cy="110" r="110" fill="url(#sunGlow)" opacity="0.25"/>
  <circle cx="180" cy="420" r="140" fill="#122a57" opacity="0.35"/>

  <g transform="translate(170 110)">
    <circle cx="220" cy="180" r="130" fill="#0c1f42" stroke="#2a4d84" stroke-width="3"/>
    <path d="M110 180h220" stroke="#2a4d84" stroke-width="3" opacity="0.6"/>
    <path d="M220 50c-46 32-76 82-76 130s30 98 76 130" stroke="#2a4d84" stroke-width="3" opacity="0.6"/>
    <path d="M220 50c46 32 76 82 76 130s-30 98-76 130" stroke="#2a4d84" stroke-width="3" opacity="0.6"/>
    <path d="M130 110c40 20 80 30 180 30" stroke="#38bdf8" stroke-width="4" stroke-linecap="round"/>
    <path d="M140 230c60 24 120 30 210 20" stroke="#22d3ee" stroke-width="4" stroke-linecap="round"/>
  </g>

  <g transform="translate(430 120)">
    <path d="M30 120l160-40-20 40 60 40-20 12-58-20-46 44-16-8 20-48-50-20z" fill="#f59e0b"/>
    <rect x="36" y="192" width="90" height="10" rx="5" fill="#f59e0b"/>
  </g>

  <g transform="translate(100 360)">
    <rect x="0" y="0" width="220" height="70" rx="18" fill="#132347" stroke="#2b4c82" stroke-width="2"/>
    <rect x="20" y="18" width="90" height="34" rx="10" fill="#1f3d78"/>
    <rect x="120" y="18" width="80" height="12" rx="6" fill="#2d4f88"/>
    <rect x="120" y="36" width="60" height="10" rx="5" fill="#2d4f88"/>
  </g>
</svg>
