<svg xmlns="http://www.w3.org/2000/svg" viewBox="0 0 800 520" role="img" aria-label="Profile illustration">
  <defs>
    <linearGradient id="bgProfile" x1="0" y1="0" x2="1" y2="1">
      <stop offset="0%" stop-color="#0b1633"/>
      <stop offset="60%" stop-color="#162c58"/>
      <stop offset="100%" stop-color="#0a172f"/>
    </linearGradient>
  </defs>
  <rect width="800" height="520" rx="36" fill="url(#bgProfile)"/>
  <circle cx="640" cy="120" r="100" fill="#1f3e78" opacity="0.4"/>
  <circle cx="160" cy="420" r="140" fill="#122653" opacity="0.35"/>

  <g transform="translate(110 110)">
    <rect x="0" y="0" width="280" height="300" rx="22" fill="#132347" stroke="#2b4c82" stroke-width="2"/>
    <circle cx="70" cy="70" r="36" fill="#f59e0b"/>
    <rect x="120" y="46" width="120" height="12" rx="6" fill="#2b4c82"/>
    <rect x="120" y="66" width="90" height="10" rx="5" fill="#2b4c82"/>
    <rect x="28" y="140" width="224" height="18" rx="9" fill="#1f3d78"/>
    <rect x="28" y="170" width="224" height="18" rx="9" fill="#1f3d78"/>
    <rect x="28" y="200" width="224" height="18" rx="9" fill="#1f3d78"/>
    <rect x="28" y="248" width="90" height="24" rx="12" fill="#f59e0b"/>
  </g>

  <g transform="translate(450 160)">
    <rect x="0" y="0" width="240" height="200" rx="20" fill="#0c1f42" stroke="#2b4c82" stroke-width="2"/>
    <rect x="20" y="24" width="80" height="80" rx="12" fill="#38bdf8"/>
    <rect x="112" y="28" width="96" height="12" rx="6" fill="#2b4c82"/>
    <rect x="112" y="50" width="76" height="10" rx="5" fill="#2b4c82"/>
    <rect x="20" y="124" width="190" height="12" rx="6" fill="#2b4c82"/>
    <rect x="20" y="146" width="150" height="10" rx="5" fill="#2b4c82"/>
  </g>
</svg>
